<svg width="264" xmlns="http://www.w3.org/2000/svg" height="234" id="screenshot-ed74aa8f-b774-80f5-8006-3eed3a91764a" viewBox="0 0 264 234" xmlns:xlink="http://www.w3.org/1999/xlink" fill="none" version="1.1"><g id="shape-ed74aa8f-b774-80f5-8006-3eed3a91764a" rx="0" ry="0"><g id="shape-ed74aa8f-b774-80f5-8006-3eed3a91764b"><g class="fills" id="fills-ed74aa8f-b774-80f5-8006-3eed3a91764b"><path d="M94.000,95.000L232.000,234.000L264.000,234.000L123.000,95.000L94.000,95.000Z" style="fill: rgb(255, 255, 255); fill-opacity: 1;"/></g></g><g id="shape-ed74aa8f-b774-80f5-8006-3eed3a91764c"><g class="fills" id="fills-ed74aa8f-b774-80f5-8006-3eed3a91764c"><path d="M209.500,180.500L188.000,159.000L187.000,83.000C187.000,83.000,181.000,31.000,130.000,21.000C128.037,20.615,46.000,21.000,46.000,21.000L46.000,0.000L131.000,0.000C131.000,0.000,203.000,4.000,209.000,82.000C209.383,86.985,209.500,180.500,209.500,180.500Z" style="fill: rgb(255, 255, 255); fill-opacity: 1;"/></g></g><g id="shape-ed74aa8f-b774-80f5-8006-3eed3a91764d"><g class="fills" id="fills-ed74aa8f-b774-80f5-8006-3eed3a91764d"><path d="M46.000,0.000C46.000,0.000,0.000,4.000,0.000,47.000C0.000,90.000,0.000,134.000,0.000,134.000C0.000,134.000,9.000,201.000,76.000,203.000C76.000,203.000,163.000,203.000,163.000,203.000L143.000,182.000L76.000,182.000C76.000,182.000,31.333,180.331,22.000,129.000C21.000,123.500,23.000,48.000,23.000,48.000C23.000,48.000,19.000,27.000,46.000,21.000C46.976,20.783,46.000,0.000,46.000,0.000Z" style="fill: rgb(255, 255, 255); fill-opacity: 1;"/></g></g></g></svg>